# xmcd
#
# Track frame offsets: 
#        150
#        12153
#        12837
#        13316
#        40011
#        57977
#        76401
#        90152
#        106874
#        125412
#        143129
#        157203
#        170606
#        175108
#        194672
#        232277
#        241869
#        259559
#        269393
#
# Disc length: 3779 seconds
#
# Revision: 0
# Processed by: cddbd v1.5.2PL0 Copyright (c) Steve Scherf et al.
# Submitted via: ExactAudioCopy v0.95b3
#
DISCID=f90ec113
DTITLE=The Beatles  - Let It Be Deluxe - 11 - Disc 3 - acetate 1  FLAC
DYEAR=1900
DGENRE=
TTITLE0=Get Back (acetate 1)
TTITLE1=I've Got A Feeling (acetate 1)
TTITLE2=Help (acetate 1)
TTITLE3=Teddy Boy (acetate 1)
TTITLE4=Two Of Us (acetate 1)
TTITLE5=Dig A Pony (acetate 1)
TTITLE6=I've Got A Feeling (acetate 1)
TTITLE7=The Long And Winding Road (acetate 1)
TTITLE8=Let It Be (acetate 1)
TTITLE9=Don't Let Me Down (acetate 1)
TTITLE10=For You Blue (acetate 1)
TTITLE11=Get Back (acetate 1)
TTITLE12=The Walk (acetate 1)
TTITLE13=I've Got A Feeling (acetate 1.5)
TTITLE14=Dig It (acetate 1.5)
TTITLE15=Rip It Up-Shake Rattle And Roll (acetate 1.5)
TTITLE16=Miss Ann-Kansas City-Lawdy Miss Clawdy (acetate 1.5)
TTITLE17=Blue Suede Shoes (acetate 1.5)
TTITLE18=You Really Got A Hold On Me (acetate 1.5)
EXTD=
EXTT0=
EXTT1=
EXTT2=
EXTT3=
EXTT4=
EXTT5=
EXTT6=
EXTT7=
EXTT8=
EXTT9=
EXTT10=
EXTT11=
EXTT12=
EXTT13=
EXTT14=
EXTT15=
EXTT16=
EXTT17=
EXTT18=
PLAYORDER=
